# xmcd
#
# Track frame offsets:
#	150
#	21525
#	33220
#	43497
#	60402
#	74717
#	81392
#	94925
#	106077
#	120120
#	136755
#	161250
#	174057
#
# Disc length: 2491 seconds
#
# Revision: 1
# Processed by: cddbd v1.5.2PL0 Copyright (c) Steve Scherf et al.
# Submitted via: audiograbber 1.83.01
#
DISCID=a209b90d
DTITLE=John Denver - Back Home Again
DYEAR=1974
DGENRE=Country
TTITLE0=Back Home Again
TTITLE1=On The Road
TTITLE2=Grandma's Feather Bed
TTITLE3=Matthew
TTITLE4=Thank God I'm A Country
TTITLE5=The Music Is You
TTITLE6=Annie's Song
TTITLE7=It's Up To You
TTITLE8=Cool An' Green An' Shady
TTITLE9=Eclipse
TTITLE10=Sweet Surrender
TTITLE11=This Old Guiter
TTITLE12=Sweet Surender (live ver.)
EXTD=This Album is remix version in 2004
EXTT0=
EXTT1=
EXTT2=
EXTT3=
EXTT4=
EXTT5=
EXTT6=
EXTT7=
EXTT8=
EXTT9=
EXTT10=
EXTT11=
EXTT12=
PLAYORDER=
